<?xml version="1.0" encoding="UTF-8" standalone="no"?>
<!-- Generator: Adobe Illustrator 19.2.0, SVG Export Plug-In . SVG Version: 6.00 Build 0)  -->

<svg
   version="1.1"
   x="0px"
   y="0px"
   viewBox="0 0 512 512"
   enable-background="new 0 0 512 512"
   xml:space="preserve"
   id="svg14"
   sodipodi:docname="IL2C.svg"
   inkscape:version="1.1 (c68e22c387, 2021-05-23)"
   xmlns:inkscape="http://www.inkscape.org/namespaces/inkscape"
   xmlns:sodipodi="http://sodipodi.sourceforge.net/DTD/sodipodi-0.dtd"
   xmlns="http://www.w3.org/2000/svg"
   xmlns:svg="http://www.w3.org/2000/svg"><defs
   id="defs18" /><sodipodi:namedview
   id="namedview16"
   pagecolor="#ffffff"
   bordercolor="#666666"
   borderopacity="1.0"
   inkscape:pageshadow="2"
   inkscape:pageopacity="0.0"
   inkscape:pagecheckerboard="0"
   showgrid="false"
   inkscape:zoom="1.2056723"
   inkscape:cx="213.98849"
   inkscape:cy="322.22686"
   inkscape:window-width="2349"
   inkscape:window-height="1257"
   inkscape:window-x="4178"
   inkscape:window-y="1242"
   inkscape:window-maximized="0"
   inkscape:current-layer="svg14" />
<g
   id="Layer_2"
   transform="matrix(0.73424971,0,0,0.73424971,-9.1283158,108.03084)"
   style="fill:#2c65a0;fill-opacity:1">
	<path
   fill="#eac083"
   d="m 446.067,512 h -217.97 c -2.818,0 -5.102,-3.663 -5.102,-8.182 V 8.182 C 222.995,3.663 225.279,0 228.097,0 H 446.23 c 2.727,0 4.938,3.546 4.938,7.92 v 149.04 346.858 c 10e-4,4.519 -2.283,8.182 -5.101,8.182 z"
   id="path2"
   style="fill:#2c65a0;fill-opacity:1" />
</g>
<g
   id="Layer_3"
   transform="matrix(0.73424971,0,0,0.73424971,-9.1283158,108.03084)"
   style="fill:#d7eef4;fill-opacity:1">
	<path
   fill="#f9e7c0"
   d="M 392.753,512 H 191.967 L 35.007,355.04 V 8.182 C 35.007,3.663 38.67,0 43.189,0 h 349.826 c 4.374,0 7.92,3.546 7.92,7.92 v 149.04 346.858 c 0,4.519 -3.663,8.182 -8.182,8.182 z"
   id="path5"
   style="fill:#d7eef4;fill-opacity:1" />
</g>
<g
   id="Layer_4"
   transform="matrix(0.73424971,0,0,0.73424971,-9.1283158,108.03084)">
	<path
   fill="#597b91"
   d="m 303.694,456.668 h -60.108 c -6.147,0 -11.13,-4.983 -11.13,-11.13 0,-6.147 4.983,-11.13 11.13,-11.13 h 60.108 c 6.146,0 11.13,4.983 11.13,11.13 0,6.147 -4.983,11.13 -11.13,11.13 z m 59.646,-83.983 c 0,-6.146 -4.983,-11.13 -11.13,-11.13 H 243.586 c -6.147,0 -11.13,4.983 -11.13,11.13 0,6.147 4.983,11.13 11.13,11.13 H 352.21 c 6.146,-10e-4 11.13,-4.984 11.13,-11.13 z m -23.867,-72.854 c 0,-6.146 -4.983,-11.13 -11.13,-11.13 h -84.757 c -6.147,0 -11.13,4.983 -11.13,11.13 0,6.147 4.983,11.13 11.13,11.13 h 84.757 c 6.146,0 11.13,-4.983 11.13,-11.13 z m -49.297,-72.853 c 0,-6.147 -4.983,-11.13 -11.13,-11.13 H 102.809 c -6.147,0 -11.13,4.983 -11.13,11.13 0,6.147 4.983,11.13 11.13,11.13 h 176.237 c 6.146,-0.001 11.13,-4.983 11.13,-11.13 z m -92.007,72.853 c 0,-6.146 -4.983,-11.13 -11.13,-11.13 h -84.231 c -6.147,0 -11.13,4.983 -11.13,11.13 0,6.147 4.983,11.13 11.13,11.13 h 84.231 c 6.148,0 11.13,-4.983 11.13,-11.13 z M 309.028,154.124 c 0,-6.147 -4.983,-11.13 -11.13,-11.13 h -195.09 c -6.147,0 -11.13,4.983 -11.13,11.13 0,6.147 4.983,11.13 11.13,11.13 h 195.09 c 6.147,0 11.13,-4.983 11.13,-11.13 z M 363.34,81.271 c 0,-6.147 -4.983,-11.13 -11.13,-11.13 H 102.809 c -6.147,0 -11.13,4.983 -11.13,11.13 0,6.147 4.983,11.13 11.13,11.13 H 352.21 c 6.146,0 11.13,-4.983 11.13,-11.13 z"
   id="path8" />
</g>
<g
   id="Layer_5"
   transform="matrix(0.73424971,0,0,0.73424971,-9.1283158,108.03084)"
   style="fill:#006780;fill-opacity:1">
	<path
   fill="#eac083"
   d="M 191.967,512 35.007,355.04 h 123.597 c 18.426,0 33.363,14.937 33.363,33.363 V 512 Z"
   id="path11"
   style="fill:#006780;fill-opacity:1" />
</g>
<g
   id="g10104"
   transform="translate(1.6588255,17.417668)"><g
     id="Layer_2-7"
     transform="matrix(0.68993294,0,0,0.68993294,149.20991,44.630869)"
     style="fill:#4d4d4d">
	<path
   style="fill:#4d4d4d"
   d="m 473.99567,-1.067094 c -27.5,-27.5 -58.8,-40.7 -70,-29.5 l -75.7,75.7 99.6,99.600004 75.7,-75.700004 c 11.1,-11.3 -2.1,-42.7 -29.6,-70.1 z"
   id="path20" />
</g><g
     id="Layer_3-2"
     transform="matrix(0.68993294,0,0,0.68993294,149.20991,44.630869)"
     style="fill:#f30000;fill-opacity:1">
	<path
   style="fill:#f30000;fill-opacity:1"
   d="m 446.49567,26.432906 c -31.4,-31.4 -67.2,-46.4 -79.9,-33.7 l -78.3,78.3 114.3,112.900004 77.5,-77.5 c 12.8,-12.800004 -2.3,-48.600004 -33.6,-80.000004 z"
   id="path23" />
</g><g
     id="Layer_4-4"
     transform="matrix(0.68993294,0,0,0.68993294,149.20991,44.630869)"
     style="fill:#7d0000;fill-opacity:1">
	<path
   style="fill:#7d0000;fill-opacity:1"
   d="m 440.19567,146.03291 c 0.1,-0.1 0.1,-0.2 0.2,-0.3 9.9,-14.1 -5.2,-48.100004 -35.2,-78.100004 -30,-30 -63.9,-45 -78.1,-35.2 -0.1,0.1 -0.2,0.1 -0.3,0.2 -0.1,0.1 -0.3,0.2 -0.4,0.3 -0.3,0.3 -0.7,0.6 -1,0.9 l -89.3,89.300004 c -40.9,40.9 -69.5,92.5 -81.9,148.9 -4.7,21.5 -6.1,39.8 0.3,46.2 6.4,6.4 24.7,5 46.2,0.3 56.5,-12.3 108.1,-41 148.9,-81.9 l 89.3,-89.3 c 0.3,-0.3 0.6,-0.7 0.9,-1 0.3,-0.1 0.4,-0.2 0.4,-0.3 z"
   id="path26" />
</g><g
     id="Layer_5-3"
     transform="matrix(0.68993294,0,0,0.68993294,149.20991,44.630869)"
     style="fill:#ffac21;fill-opacity:1">
	<path
   style="fill:#ffac21;fill-opacity:1"
   d="m 140.19567,438.63291 78.1,-120.5 -0.2,-0.5 c 5.1,-6.6 -4.1,-25.1 -21,-42 -17.1,-17.1 -35.7,-26.3 -42.2,-20.9 v 0 0 l -120.699999,78 c -1.5,0.9 -2.5,2.3 -3,3.9 l -26.6999996,104.1 c -1.2,4.8 4.6,8.1 8.0999996,4.6 l 63.2,-63.2 c 3.2,-3.2 4.4,-7.7 3.5,-12.1 -2.1,-10.3 1.2,-21.4 10,-28.9 11.199999,-9.6 28.099999,-9.5 39.199999,0.3 13.2,11.6 13.7,31.7 1.5,43.9 -7.4,7.4 -17.8,10.2 -27.4,8.2 -4.299999,-0.9 -8.799999,0.5 -11.899999,3.6 l -63.2,63.2 c -3.5,3.5 -0.1,9.3 4.6,8.1 l 104.099999,-26.7 c 1.7,-0.5 3.1,-1.6 4,-3.1 z"
   id="path29" />
</g><g
     id="Layer_6"
     transform="matrix(0.68993294,0,0,0.68993294,149.20991,44.630869)"
     style="fill:#808080">
	<path
   style="fill:#808080"
   d="m 468.09567,122.33291 c 6.6,-6.6 6.6,-17.4 0,-24.000004 -6.6,-6.6 -17.4,-6.6 -24,0 l -17.2,17.200004 c -3.2,3.2 -5,7.5 -5,12 v 19.9 l -77.4,77.3 c -6.6,6.6 -6.6,17.4 0,24 3.3,3.3 7.7,5 12,5 4.3,0 8.7,-1.7 12,-5 l 80.5,-80.5 c 4.1,-3.1 6.7,-8 6.7,-13.5 v -0.2 c 0,0 0,0 0,0 v -19.9 z"
   id="path32" />
</g></g></svg>
