<?xml version="1.0" encoding="iso-8859-1"?>
<!-- Generator: Adobe Illustrator 19.2.0, SVG Export Plug-In . SVG Version: 6.00 Build 0)  -->
<!DOCTYPE svg PUBLIC "-//W3C//DTD SVG 1.1//EN" "http://www.w3.org/Graphics/SVG/1.1/DTD/svg11.dtd">
<svg version="1.1" xmlns="http://www.w3.org/2000/svg" xmlns:xlink="http://www.w3.org/1999/xlink" x="0px" y="0px"
	 viewBox="0 0 512 512" enable-background="new 0 0 512 512" xml:space="preserve">
<g id="Layer_2">
	<path fill="#EAC083" d="M446.067,512h-217.97c-2.818,0-5.102-3.663-5.102-8.182V8.182c0-4.519,2.284-8.182,5.102-8.182H446.23
		c2.727,0,4.938,3.546,4.938,7.92v149.04v346.858C451.169,508.337,448.885,512,446.067,512z"/>
</g>
<g id="Layer_3">
	<path fill="#F9E7C0" d="M392.753,512H191.967L35.007,355.04V8.182C35.007,3.663,38.67,0,43.189,0h349.826
		c4.374,0,7.92,3.546,7.92,7.92v149.04v346.858C400.935,508.337,397.272,512,392.753,512z"/>
</g>
<g id="Layer_4">
	<path fill="#597B91" d="M303.694,456.668h-60.108c-6.147,0-11.13-4.983-11.13-11.13s4.983-11.13,11.13-11.13h60.108
		c6.146,0,11.13,4.983,11.13,11.13S309.841,456.668,303.694,456.668z M363.34,372.685c0-6.146-4.983-11.13-11.13-11.13H243.586
		c-6.147,0-11.13,4.983-11.13,11.13s4.983,11.13,11.13,11.13H352.21C358.356,383.814,363.34,378.831,363.34,372.685z
		 M339.473,299.831c0-6.146-4.983-11.13-11.13-11.13h-84.757c-6.147,0-11.13,4.983-11.13,11.13s4.983,11.13,11.13,11.13h84.757
		C334.489,310.961,339.473,305.978,339.473,299.831z M290.176,226.978c0-6.147-4.983-11.13-11.13-11.13H102.809
		c-6.147,0-11.13,4.983-11.13,11.13s4.983,11.13,11.13,11.13h176.237C285.192,238.107,290.176,233.125,290.176,226.978z
		 M198.169,299.831c0-6.146-4.983-11.13-11.13-11.13h-84.231c-6.147,0-11.13,4.983-11.13,11.13s4.983,11.13,11.13,11.13h84.231
		C193.187,310.961,198.169,305.978,198.169,299.831z M309.028,154.124c0-6.147-4.983-11.13-11.13-11.13h-195.09
		c-6.147,0-11.13,4.983-11.13,11.13s4.983,11.13,11.13,11.13h195.09C304.045,165.254,309.028,160.271,309.028,154.124z
		 M363.34,81.271c0-6.147-4.983-11.13-11.13-11.13H102.809c-6.147,0-11.13,4.983-11.13,11.13s4.983,11.13,11.13,11.13H352.21
		C358.356,92.401,363.34,87.418,363.34,81.271z"/>
</g>
<g id="Layer_5">
	<path fill="#EAC083" d="M191.967,512L35.007,355.04h123.597c18.426,0,33.363,14.937,33.363,33.363V512z"/>
</g>
</svg>
