<?xml version="1.0" encoding="utf-8"?>
<!-- Generator: Adobe Illustrator 19.1.0, SVG Export Plug-In . SVG Version: 6.00 Build 0)  -->
<!DOCTYPE svg PUBLIC "-//W3C//DTD SVG 1.1//EN" "http://www.w3.org/Graphics/SVG/1.1/DTD/svg11.dtd">
<svg version="1.1" xmlns="http://www.w3.org/2000/svg" xmlns:xlink="http://www.w3.org/1999/xlink" x="0px" y="0px"
	 viewBox="0 0 512 512" style="enable-background:new 0 0 512 512;" xml:space="preserve">
<g id="Layer_2">
	<path style="fill:#597B91;" d="M476.4,36.2C448.9,8.7,417.6-4.5,406.4,6.7l-75.7,75.7l99.6,99.6l75.7-75.7
		C517.1,95,503.9,63.6,476.4,36.2z"/>
</g>
<g id="Layer_3">
	<path style="fill:#A1AAAD;" d="M448.9,63.7C417.5,32.3,381.7,17.3,369,30l-78.3,78.3L405,221.2l77.5-77.5
		C495.3,130.9,480.2,95.1,448.9,63.7z"/>
</g>
<g id="Layer_4">
	<path style="fill:#445056;" d="M442.6,183.3c0.1-0.1,0.1-0.2,0.2-0.3c9.9-14.1-5.2-48.1-35.2-78.1c-30-30-63.9-45-78.1-35.2
		c-0.1,0.1-0.2,0.1-0.3,0.2c-0.1,0.1-0.3,0.2-0.4,0.3c-0.3,0.3-0.7,0.6-1,0.9l-89.3,89.3c-40.9,40.9-69.5,92.5-81.9,148.9
		c-4.7,21.5-6.1,39.8,0.3,46.2s24.7,5,46.2,0.3c56.5-12.3,108.1-41,148.9-81.9l89.3-89.3c0.3-0.3,0.6-0.7,0.9-1
		C442.5,183.5,442.6,183.4,442.6,183.3z"/>
</g>
<g id="Layer_5">
	<path style="fill:#B9C5C6;" d="M142.6,475.9l78.1-120.5l-0.2-0.5c5.1-6.6-4.1-25.1-21-42c-17.1-17.1-35.7-26.3-42.2-20.9l0,0h0
		L36.6,370c-1.5,0.9-2.5,2.3-3,3.9L6.9,478c-1.2,4.8,4.6,8.1,8.1,4.6l63.2-63.2c3.2-3.2,4.4-7.7,3.5-12.1
		c-2.1-10.3,1.2-21.4,10-28.9c11.2-9.6,28.1-9.5,39.2,0.3c13.2,11.6,13.7,31.7,1.5,43.9c-7.4,7.4-17.8,10.2-27.4,8.2
		c-4.3-0.9-8.8,0.5-11.9,3.6l-63.2,63.2c-3.5,3.5-0.1,9.3,4.6,8.1l104.1-26.7C140.3,478.5,141.7,477.4,142.6,475.9z"/>
</g>
<g id="Layer_6">
	<path style="fill:#597B91;" d="M470.5,159.6c6.6-6.6,6.6-17.4,0-24c-6.6-6.6-17.4-6.6-24,0l-17.2,17.2c-3.2,3.2-5,7.5-5,12v19.9
		L346.9,262c-6.6,6.6-6.6,17.4,0,24c3.3,3.3,7.7,5,12,5s8.7-1.7,12-5l80.5-80.5c4.1-3.1,6.7-8,6.7-13.5v-0.2c0,0,0,0,0,0v-19.9
		L470.5,159.6z"/>
</g>
</svg>
